inDegrees=no
num_controls=7
num_derivatives=13
num_iterations=96
num_multipliers=7
num_parameters=0
num_slacks=7
num_states=26
objective=5.319577
objective_accelerations=0.700506
objective_balance=0.063698
objective_effort=0.500665
objective_height=3.991953
objective_ligament=0.062756
solver_duration=1092.228978
status=Solve_Succeeded
success=true
DataType=double
version=3
OpenSimVersion=4.4-2022-07-23-0e9fedc
endheader
time	/jointset/ground_pelvis/pelvis_tilt/value	/jointset/ground_pelvis/pelvis_tx/value	/jointset/ground_pelvis/pelvis_ty/value	/jointset/hip_l/hip_flexion_l/value	/jointset/hip_l/hip_adduction_l/value	/jointset/hip_l/hip_rotation_l/value	/jointset/back/lumbar_extension/value	/jointset/patellofemoral_l/patellar_flexion_l/value	/jointset/knee_l/knee_flexion_l/value	/jointset/knee_l/knee_adduction_l/value	/jointset/knee_l/knee_rotation_l/value	/jointset/ankle_l/ankle_angle_l/value	/jointset/subtalar_l/subtalar_angle_l/value	/jointset/ground_pelvis/pelvis_tilt/speed	/jointset/ground_pelvis/pelvis_tx/speed	/jointset/ground_pelvis/pelvis_ty/speed	/jointset/hip_l/hip_flexion_l/speed	/jointset/hip_l/hip_adduction_l/speed	/jointset/hip_l/hip_rotation_l/speed	/jointset/back/lumbar_extension/speed	/jointset/patellofemoral_l/patellar_flexion_l/speed	/jointset/knee_l/knee_flexion_l/speed	/jointset/knee_l/knee_adduction_l/speed	/jointset/knee_l/knee_rotation_l/speed	/jointset/ankle_l/ankle_angle_l/speed	/jointset/subtalar_l/subtalar_angle_l/speed	/forceset/tau_hip_flexion_l	/forceset/tau_hip_adduction_l	/forceset/tau_hip_rotation_l	/forceset/tau_knee_flexion_l	/forceset/tau_ankle_angle_l	/forceset/tau_subtalar_angle_l	/forceset/tau_lumbar_extension	lambda_cid13_p0	lambda_cid13_p1	lambda_cid13_p2	lambda_cid13_p3	lambda_cid13_p4	lambda_cid13_p5	lambda_cid14_p0	/jointset/ground_pelvis/pelvis_tilt/accel	/jointset/ground_pelvis/pelvis_tx/accel	/jointset/ground_pelvis/pelvis_ty/accel	/jointset/hip_l/hip_flexion_l/accel	/jointset/hip_l/hip_adduction_l/accel	/jointset/hip_l/hip_rotation_l/accel	/jointset/back/lumbar_extension/accel	/jointset/patellofemoral_l/patellar_flexion_l/accel	/jointset/knee_l/knee_flexion_l/accel	/jointset/knee_l/knee_adduction_l/accel	/jointset/knee_l/knee_rotation_l/accel	/jointset/ankle_l/ankle_angle_l/accel	/jointset/subtalar_l/subtalar_angle_l/accel	gamma_cid13_p0	gamma_cid13_p1	gamma_cid13_p2	gamma_cid13_p3	gamma_cid13_p4	gamma_cid13_p5	gamma_cid14_p0
1	-0.2359865834536935	-0.01908473260232508	0.411800055851454	2.094395102393195	-0.2380664708927876	0.08710805643153492	-0.4363323129985824	2.040106260958059	2.040106260958149	0.1745327541559677	0.174530657666107	0.4363322958094948	0.1431027637410321	-0.009679556479788229	0.0007675495173705161	-0.003335460896789775	0.01723271229633973	0.000985338274667866	0.005276163551476027	1.079106978677906e-06	0.006131477156430148	0.006131477156429445	-0.002547258298303837	1.05175659864114e-05	-0.001084993621226133	0.0009973280527030065	-0.1580145079562109	-0.01711901414472397	-0.06856872645889849	-0.5614465641684357	0.1383214102251402	0.01923522765055727	0.1877363690077835	-2.695176680292924	1.82785781536867	-11.78476937307592	7.850509706691705	-729.5152635003841	-71.1893059168242	-0.02551026134446233	-2.377911693576714	-0.6551806115437726	1.849365226411571	-3.354220297249358	-0.02191716822118567	-0.854619188878678	0.04295714501577413	-6.120178544588494	-6.120178544588492	-0.9487598131506118	-0.02707177785961705	-0.6634825082638246	-0.2956334082954344	1.18203436928661e-09	5.262338062916548e-09	9.321567697451998e-09	-2.548457888829438e-09	-8.382392063795527e-10	2.857285137163816e-08	-1.131525618990807e-09
1.01	-0.236199734990111	-0.01910998175543966	0.4118601061864098	2.094394758249945	-0.2380572748025221	0.08712237089206371	-0.4363313916283627	2.039859735956581	2.039859735956618	0.174455684927104	0.1745299055774077	0.4362889709469269	0.143098906258063	-0.0327892533465705	-0.005838307685098481	0.01542668072378205	-0.01765556966971	0.0008507139656659935	-0.002406651263480203	0.0001602699152620565	-0.05561805126654201	-0.05561805126654983	-0.01292465506941164	-0.000153073941481612	-0.007575558636222828	-0.001771274345941942	-0.1617544075467368	-0.01663504362534579	-0.06849633602699051	-0.5610705082816498	0.1345577948104028	0.01931319195708231	0.1905967741333685	-4.104762040731064	2.029505348545424	-11.80400912764512	9.51968011030792	-731.9933293040741	-71.01206802762174	-0.02550963284942116	-2.253269536742846	-0.6664143803754667	1.901812353195873	-3.609177002813296	-0.009701302719667453	-0.7241137223884734	-0.001325163354787029	-6.229580305696475	-6.22958030569763	-1.090925763554933	-0.009802400379979325	-0.6411837431373723	-0.2678264264975253	-8.495853703157885e-09	-4.884916123149576e-08	-5.47654553250443e-08	6.444937502151917e-08	3.940792640300222e-09	-2.665069337555654e-07	2.099003408646127e-08
1.02	-0.2366391376658825	-0.01920191470173427	0.4121102126822338	2.094034920462196	-0.2380495182034411	0.0870600569855234	-0.4363296138439219	2.038990267607964	2.038990267607951	0.1742731024996568	0.1745277576609443	0.4361808723851349	0.1430672921969371	-0.05492978435393236	-0.0125692091186343	0.03467577127686071	-0.05466564589701025	0.0006974400374564636	-0.01004950986181706	0.0001704522398584111	-0.1184571922713106	-0.1184571922713255	-0.02364989801910288	-0.0002686479764935549	-0.01403973345200779	-0.004553987578558177	-0.1654943071373564	-0.01615107310602484	-0.06842394559495732	-0.5606944523948739	0.1307941793956706	0.01939115626351192	0.1934571792588638	-5.514689788232582	2.229064757469899	-11.82046276385285	11.25919484896045	-734.4322822427299	-70.83503579513085	-0.02557293949444998	-2.184078521692821	-0.6801894577568804	1.946755012912981	-3.778579149499679	-0.02564709206341752	-0.8466279455549151	0.0131554482732779	-6.338101060947678	-6.33810106094765	-1.018329048867728	-0.01746828336710888	-0.6582044684209477	-0.2984555750906288	9.439367779893694e-09	-1.228037073994155e-07	-1.483663325429585e-07	5.06558678327028e-08	-1.891003712367398e-08	-6.3509147967555e-07	4.498052742411989e-08
1.03	-0.2372949217255639	-0.01936165750005713	0.4125552559988498	2.093294276668094	-0.2380433843328386	0.08692158122553741	-0.4363281683104136	2.037487063932816	2.037487063932768	0.1739815252979747	0.1745246709614006	0.436008294539874	0.1430078055666799	-0.0760392413210116	-0.01938718805091224	0.05441607560350308	-0.09383433662711105	0.0005233820136244876	-0.01765338324620832	0.000116254914803871	-0.1823536380803808	-0.182353638080395	-0.03470630618782596	-0.0003446786138296096	-0.02046855981768478	-0.007348011415545787	-0.1698016412700026	-0.01553695808032764	-0.06820545971139456	-0.5600395867695327	0.1269881012732202	0.01942586712589362	0.1967686976254127	-6.940975938203096	2.454718977045592	-11.84615417223634	12.8170348905589	-737.0100127266259	-70.56175344074587	-0.02564389934661272	-2.046199481573805	-0.6837706172415344	2.000137127377127	-4.04168693384285	-0.01414313943468961	-0.7184082634090107	-0.01506726615766124	-6.440944582452232	-6.440944582452235	-1.155358629751905	-0.00198078845714123	-0.6341330093384722	-0.2705164049899583	2.765635568698111e-08	-1.969607336374732e-07	-2.422683715383772e-07	3.603795921430265e-08	-4.204280425102236e-08	-1.004426074175053e-06	6.899009151312758e-08
1.04	-0.2381561643943771	-0.01958981378895841	0.4132001961556993	2.092150811386893	-0.2380391626388434	0.08670683848599635	-0.4363273367384683	2.035339790151264	2.03533979015115	0.1735781716290351	0.174520961888421	0.435771646173209	0.142920250574655	-0.09602150618243691	-0.0262519072343196	0.0746551393235728	-0.1352299433203252	0.0003150047141291478	-0.02530290577171754	4.765985919318727e-05	-0.2472712135520698	-0.2472712135520857	-0.04600519151165971	-0.0003931226327531057	-0.02685383773125486	-0.01016765993203645	-0.1741089754025449	-0.01492284305467457	-0.0679869738274944	-0.5593847211442114	0.1231820231507318	0.01946057798817775	0.2000802159920582	-8.367637039579908	2.67789946604106	-11.86855101532137	14.44377447348427	-739.5513225932912	-70.2903956200563	-0.02577947475072691	-1.958640100562221	-0.6895375079825999	2.046506891598463	-4.223962342122361	-0.03251094719662329	-0.8557577737785217	0.01027590215986948	-6.542326993471354	-6.542326993471804	-1.06682447989026	-0.01195095968357477	-0.64949477799927	-0.3035805109919953	4.826354702160438e-08	-2.752437241554441e-07	-3.419889393735856e-07	1.546791324680931e-08	-6.8226012354097e-08	-1.386752540623846e-06	9.37704376953132e-08
